<svg version="1.1" id="Layer_1" xmlns="http://www.w3.org/2000/svg" xmlns:xlink="http://www.w3.org/1999/xlink" x="0px" y="0px"
     width="120px" height="120px" viewBox="0 0 120 120" style="enable-background:new 0 0 120 120;" xml:space="preserve">
<g>
    <defs>
        <rect id="SVGID_1_" x="1.3" y="3.1" width="115.3" height="111.4"/>
    </defs>
    <clipPath id="SVGID_2_">
        <use xlink:href="#SVGID_1_"  style="overflow:visible;"/>
    </clipPath>
    <g style="clip-path:url(#SVGID_2_);">
        <path style="fill:#010101;" d="M26.9,44c-1.2,4.2-2.5,7.8-5,11.4c0,0.6,0,1.2,0.6,1.2c2.5,1.2,5,1.2,7.4-0.6
            c4.3-1.8,8.7-3.6,12.4-5.4c1.2-0.6,0-2.4-1.2-1.8l-7.4,3.6c-2.5,1.2-7.4,4.2-10.5,2.4l0.6,1.2c1.9-3.6,3.7-7.8,5-12
            c0-0.6,0-1.2-0.6-1.2C27.5,43.4,26.9,43.4,26.9,44L26.9,44L26.9,44z"/>
        <path style="fill:#010101;" d="M85.8,70.3c8.7,17.4,18,34.7,26,52.1c5,10.2,9.3,19.8,6.8,31.1c-1.9,10.2-6.8,19.8-11.2,29.3
            c-14.3,31.1-34.1,64.7-70.7,73.7c-0.6,0-0.6,0.6-0.6,1.2c0,0.6,0.6,0.6,1.2,0.6l0,0c38.4-9.6,58.3-44.9,72.5-77.2
            c7.4-16.8,15.5-32.9,8.1-50.9c-8.7-21-20.5-40.7-30.4-61.1C87,68.5,85.2,69.7,85.8,70.3L85.8,70.3z"/>
        <path style="fill:#010101;" d="M30,137.4c3.7,6,7.4,12.6,9.9,19.2c0.6,1.2,2.5,0.6,1.9-0.6c-2.5-6.6-5.6-13.2-9.9-19.8
            C31.2,135,29.4,136.2,30,137.4L30,137.4z"/>
        <path style="fill:#010101;" d="M39.3,136.2c5.6,2.4,9.9,7.2,11.2,13.2c0,1.2,2.5,0.6,1.9-0.6c-1.2-6.6-5.6-12-12.4-14.4
            C38.7,133.8,37.4,135.6,39.3,136.2L39.3,136.2z"/>
        <path style="fill:#010101;" d="M51.7,137.4c3.1,3.6,5.6,7.2,8.1,11.4c0.6,1.2,2.5,0,1.9-1.2c-1.9-4.2-5-8.4-8.1-11.4
            C52.3,135,51.1,136.2,51.7,137.4L51.7,137.4z"/>
        <path style="fill:#010101;" d="M104.4,132.6c3.1,4.2,5,8.4,6.2,13.2c0.6,1.2,2.5,0.6,1.9-0.6c-1.2-4.8-3.7-9.6-6.8-13.8
            C105.6,130.2,103.8,131.4,104.4,132.6L104.4,132.6z"/>
        <path style="fill:#010101;" d="M36.8,177.5l-3.1,6.6c-0.6,1.2,1.2,2.4,1.9,1.2l3.1-6.6C39.3,177.5,37.4,176.3,36.8,177.5z"/>
        <path style="fill:#010101;" d="M25,188.9l-7.4,11.4c-0.6,1.2,1.2,2.4,1.9,1.2l7.4-11.4C28.1,188.9,26.3,187.7,25,188.9z"/>
        <path style="fill:#010101;" d="M36.2,56.5c2.5,12-3.7,23.4-8.7,33.5c-4.3,8.4-9.3,16.8-14.3,25.1c-0.6,1.2,1.2,2.4,1.9,1.2
            c6.2-10.8,12.4-21.6,18-32.3c4.3-9,8.1-18,5.6-28.1C38,54.7,36.2,55.3,36.2,56.5L36.2,56.5z"/>
        <path style="fill:#010101;" d="M10.1,115.8c-14.3,6.6-24.8,18.6-34.1,30.5c-11.2,14.4-22.9,28.1-36,40.7
            c-5.6,5.4-11.2,11.4-16.1,18c-5,7.2-7.4,15.6-12.4,22.8c-8.7,14.4-31.6,16.8-35.3,34.1c0,1.2,1.9,1.8,1.9,0.6
            c3.7-17.4,26-19.8,34.7-33.5c4.3-7.2,6.8-15,11.8-22.2c5.6-7.2,11.2-13.8,18-20.4c11.2-10.8,21.1-22.2,30.4-34.1
            c10.5-13.8,21.7-27.5,37.8-35.3C12.6,117,11.4,115.2,10.1,115.8L10.1,115.8z"/>
        <path style="fill:#010101;" d="M-76.7,235.6c-19.8,19.2-49,24.6-64.5,48.5c0,0.6,0,1.2,0.6,1.2h0.6c6.8,0,14.3,1.8,21.1,1.2
            c6.2-1.2,12.4-3,18.6-5.4c13.6-4.8,27.3-10.2,40.3-16.2c1.2-0.6,0-2.4-1.2-1.8c-13,6-26,11.4-39.7,16.2c-6.2,3-13.6,4.8-20.5,5.4
            c-6.2,0-12.4-1.2-18.6-1.2l0.6,1.8c15.5-23.4,44-29.3,63.9-47.9C-74.2,236.2-76,235-76.7,235.6L-76.7,235.6z"/>
        <path style="fill:#010101;" d="M-115.7,267.3c-1.9-2.4-5,0-6.2,1.8c-3.1,4.2-6.8,7.8-9.9,12c-0.6,1.2,1.2,2.4,1.9,1.2
            c1.9-2.4,3.7-4.8,6.2-7.8c0.6-0.6,5.6-7.2,6.2-6C-117,269.7-114.5,268.5-115.7,267.3L-115.7,267.3z"/>
        <path style="fill:#010101;" d="M-113.9,277.5c0.6,0,1.2-0.6,1.2-1.2c0-0.6-0.6-1.2-1.2-1.2c-0.6,0-1.2,0.6-1.2,1.2
            C-115.1,277.5-114.5,277.5-113.9,277.5z"/>
        <path style="fill:#010101;" d="M-71.7,263.1c-5-1.2-8.7,1.2-13,3.6c-6.2,3.6-12.4,7.8-18.6,12c-1.2,0.6,0,2.4,1.2,1.8l13-7.8
            c5-3,11.2-8.4,16.7-7.2c0.6,0,1.2,0,1.2-0.6C-71.1,263.7-71.1,263.1-71.7,263.1L-71.7,263.1z"/>
        <path style="fill:#010101;" d="M33.7,190.1c-12.4,30.5-44,49.7-78.1,46.7c-1.2,0-1.2,1.8,0,1.8c34.7,3,67.6-16.8,80-47.9
            C36.2,189.5,33.7,188.9,33.7,190.1L33.7,190.1z"/>
        <path style="fill:#010101;" d="M-44.4,236.2c-7.4,6-15.5,10.8-23.6,15c-1.2,0.6,0,2.4,1.2,1.8c8.7-4.2,16.7-9.6,24.2-15.6
            C-41.3,236.8-43.2,235-44.4,236.2z"/>
        <path style="fill:#010101;" d="M-68,238.6c-8.1,6.6-16.7,11.4-26.7,15c-1.2,0.6-0.6,2.4,0.6,1.8c9.9-3.6,19.2-9,27.3-15.6
            C-64.9,239.2-66.7,238-68,238.6L-68,238.6z"/>
        <path style="fill:#010101;" d="M-51.9,228.4c-1.2,1.2-2.5,1.8-4.3,1.8c-1.2,0-0.6,2.4,0.6,1.8c1.9,0,3.7-1.2,5-2.4
            C-49.4,229-51.2,227.8-51.9,228.4z"/>
        <path style="fill:#010101;" d="M-58.1,225.4c-1.9,1.2-4.3,1.8-6.8,1.2c-1.2,0-1.2,1.8,0,1.8c3.1,0,5.6-0.6,8.1-1.8
            C-55.6,226.6-56.8,224.8-58.1,225.4L-58.1,225.4z"/>
        <path style="fill:#010101;" d="M-63,217l-5,2.4c-1.2,0.6,0,2.4,1.2,1.8l5-2.4C-60.5,218.2-61.8,216.4-63,217L-63,217z"/>
        <path style="fill:#010101;" d="M-68,209.8l-5,3.6c-1.2,0.6,0,2.4,1.2,1.8l5.6-3.6C-65.5,211-66.7,209.2-68,209.8z"/>
        <path style="fill:#010101;" d="M-65.5,198.4l-12.4,11.4c-1.2,1.2,0.6,2.4,1.2,1.2l12.4-11.4C-63,199-64.9,197.3-65.5,198.4
            L-65.5,198.4z"/>
        <path style="fill:#010101;" d="M-52.5,184.7c-3.7,3-6.2,6-8.7,9.6c-1.2,1.2,0.6,2.4,1.2,1.2c2.5-3.6,5-6.6,8.7-9.6
            C-50,185.3-51.9,184.1-52.5,184.7L-52.5,184.7z"/>
        <path style="fill:#010101;" d="M-51.2,193.1l-4.3,4.2c-0.6,0.6-0.6,1.2,0,1.2c0.6,0.6,1.2,0.6,1.2,0l0,0l4.3-4.2
            c0.6-0.6,0.6-1.2,0-1.2C-50,192.5-50.6,192.5-51.2,193.1z"/>
        <path style="fill:#010101;" d="M-48.1,198.4c-0.6,2.4-1.9,4.2-4.3,5.4c-1.2,0.6,0,2.4,1.2,1.8c2.5-1.2,4.3-3.6,5-6.6
            C-46.3,197.9-48.1,197.3-48.1,198.4L-48.1,198.4z"/>
        <path style="fill:#010101;" d="M-41.9,201.4l-4.3,5.4c-0.6,1.2,0.6,2.4,1.2,1.2l4.3-5.4C-39.5,201.4-41.3,200.2-41.9,201.4
            L-41.9,201.4z"/>
        <path style="fill:#010101;" d="M-39.5,206.8l-4.3,4.8c-1.2,1.2,0.6,2.4,1.2,1.2l4.3-4.8C-37,207.4-38.8,206.2-39.5,206.8z"/>
        <path style="fill:#010101;" d="M-35.1,210.4c-0.6,1.8-1.9,3-3.7,4.2c-1.2,0.6,0,2.4,1.2,1.8c1.9-1.2,3.1-3,4.3-4.8
            C-32.6,210.4-34.5,209.2-35.1,210.4L-35.1,210.4z"/>
        <path style="fill:#010101;" d="M-26.4,210.4c-2.5,0.6-5,2.4-6.8,4.2c-0.6,1.2,0.6,2.4,1.2,1.2c1.2-1.8,3.7-3,5.6-3.6
            C-24.6,212.2-24.6,209.8-26.4,210.4z"/>
        <path style="fill:#010101;" d="M-18.4,212.8l-2.5,0.6c-1.2,0.6-0.6,2.4,0.6,1.8l2.5-0.6C-16.5,214-17.1,212.2-18.4,212.8z"/>
        <path style="fill:#010101;" d="M-14,211.6l-3.1,1.8c-0.6,0.6-0.6,1.2-0.6,1.2c0,0.6,1.2,0.6,1.2,0.6l0,0l3.1-2.4
            c0.6-0.6,0.6-1.2,0.6-1.2C-12.8,211-13.4,211-14,211.6L-14,211.6z"/>
        <path style="fill:#010101;" d="M-43.2,250.5c-4.3,0.6-8.1,1.8-11.8,3.6c-1.2,0.6-0.6,2.4,0.6,1.8c3.7-1.2,8.1-2.4,12.4-3.6
            C-41.3,251.7-41.3,249.9-43.2,250.5L-43.2,250.5z"/>
        <path style="fill:#010101;" d="M-35.7,251.7c-4.3,1.2-8.7,3-12.4,5.4c-1.2,0.6,0,2.4,1.2,1.8c3.7-2.4,7.4-4.2,11.8-5.4
            c0.6,0,0.6-0.6,0.6-1.2C-34.5,251.7-35.1,251.7-35.7,251.7L-35.7,251.7z"/>
        <path style="fill:#010101;" d="M36.2,251.7c-3.1,8.4-10.5,15-19.8,18c-0.6,0-0.6,0.6-0.6,1.2s0.6,0.6,1.2,0.6l0,0
            c9.9-3,17.4-10.2,21.1-19.2C38.7,251.1,36.8,250.5,36.2,251.7z"/>
        <path style="fill:#010101;" d="M27.5,239.2c-0.6,3.6-2.5,6.6-5,9c-1.2,1.2,0.6,2.4,1.2,1.2c3.1-3,5-6,5.6-10.2
            C30,238.6,27.5,238,27.5,239.2L27.5,239.2z"/>
        <path style="fill:#010101;" d="M89.5,196.7l-6.8,9.6c-0.6,1.2,1.2,2.4,1.9,1.2l6.8-9.6C92,196.7,90.1,196.1,89.5,196.7z"/>
        <path style="fill:#010101;" d="M34.9,245.2c22.3-7.8,45.3-16.8,58.3-37.1c0-0.6,0-1.2-0.6-1.2c-0.6,0-1.2,0-1.2,0.6
            c-12.4,20.4-35.3,28.7-57,35.9C33.1,244,33.7,245.8,34.9,245.2L34.9,245.2z"/>
        <path style="fill:#010101;" d="M58.5,32.6c-1.2,0-2.5,1.2-2.5,2.4s1.2,2.4,2.5,2.4c0.6,0,0.6,0,1.2-0.6c1.2-0.6,0-2.4-1.2-1.8l0,0
            l0,0c0.6,0,1.2-0.6,1.2-1.2C59.7,33.2,59.1,33.2,58.5,32.6L58.5,32.6z"/>
        <path style="fill:#010101;" d="M25,111.6c0.6,1.8,0.6,4.2-1.2,5.4c-0.6,1.2,0.6,2.4,1.2,1.2c1.9-2.4,2.5-4.8,1.9-7.8
            C26.3,109.8,24.4,110.4,25,111.6L25,111.6z"/>
        <path style="fill:#010101;" d="M34.3,111.6c0,3-0.6,6-1.2,8.4c-0.6,1.2,1.9,1.8,1.9,0.6c1.2-3,1.9-6,1.2-9
            C36.8,110.4,34.3,110.4,34.3,111.6L34.3,111.6z"/>
        <path style="fill:#010101;" d="M95.1,118.2l3.1,3.6c0.6,0.6,1.2,0.6,1.2,0l0,0c0.6-0.6,0.6-1.2,0-1.2l-3.1-3.6
            c-0.6-0.6-1.2-0.6-1.2,0l0,0C95.1,117,95.1,117.6,95.1,118.2z"/>
        <path style="fill:#010101;" d="M101.3,114l6.2,9.6c0,0.6,1.2,0.6,1.2,0.6c0.6,0,0.6-1.2,0.6-1.2l-6.2-9.6c0-0.6-1.2-0.6-1.2-0.6
            C101.3,113.4,100.7,114,101.3,114z"/>
        <path style="fill:#010101;" d="M108.1,116.4l3.7,7.2c0.6,1.2,2.5,0,1.9-1.2l-3.7-7.2C109.4,114,107.5,115.2,108.1,116.4
            L108.1,116.4z"/>
        <path style="fill:#010101;" d="M52.3,42.2c3.7,1.2,8.1-1.2,9.3-4.8v-0.6c0-1.2-1.9-1.8-1.9-0.6c-0.6,3-3.1,4.8-6.2,4.8h-0.6
            C51.1,39.8,50.4,41.6,52.3,42.2z"/>
        <path style="fill:#010101;" d="M30.6,42.2c-3.7-10.8-4.3-21,8.1-26.9c8.1-4.8,18.6-4.2,26.7,0.6c9.3,5.4,11.8,16.2,14.3,25.7
            c3.1,10.8,5.6,21.6,6.8,32.3c0,1.2,2.5,1.2,1.9,0c-1.9-15-5.6-29.3-10.5-43.7c-3.7-9-9.3-17.4-19.8-19.8c-9.3-1.8-18.6,0-26,5.4
            c-9.3,6.6-6.8,17.4-3.7,26.3C29.4,44,31.2,43.4,30.6,42.2L30.6,42.2z"/>
        <path style="fill:#010101;" d="M28.7,43.4c5.6-0.6,11.2,1.2,15.5,4.8c1.2,1.2,2.5-0.6,1.2-1.2c-4.3-4.2-11.2-6-17.4-5.4
            C26.9,41.6,27.5,44,28.7,43.4L28.7,43.4z"/>
        <path style="fill:#010101;" d="M-61.8,255.9c5,0.6,9.3,4.2,14.3,5.4c3.7,1.2,8.1,1.8,11.8,1.8c9.9-0.6,19.8-2.4,29.1-6
            c1.2-0.6,0.6-2.4-0.6-1.8c-9.3,3.6-19.2,5.4-29.1,6c-5.6,0-11.2-1.2-16.1-3.6c-3.1-1.8-6.2-3-9.9-3.6
            C-63,253.5-63.6,255.9-61.8,255.9L-61.8,255.9z"/>
        <path style="fill:#010101;" d="M-4.1,257.1c2.5,7.8,3.7,17.4,7.4,25.1c1.2,4.2,6.2,6.6,10.5,5.4c1.2-0.6,0.6-2.4-0.6-1.8
            c-8.1,2.4-9.9-9.6-10.5-13.8l-4.3-15c0-0.6-0.6-0.6-1.2-0.6C-4.1,255.9-4.1,256.5-4.1,257.1L-4.1,257.1z"/>
        <path style="fill:#010101;" d="M17.6,270.3c1.2,4.8,0,10.2-2.5,14.4c-0.6,1.2,1.2,2.4,1.9,1.2c2.5-4.8,3.7-10.2,2.5-15.6
            C18.8,268.5,17,269.1,17.6,270.3z"/>
        <path style="fill:#010101;" d="M17,270.3c3.1,5.4,7.4,10.2,12.4,13.8c1.2,0.6,2.5-1.2,1.2-1.8c-5-3.6-9.3-7.8-11.8-13.2
            C18.2,268.5,16.3,269.1,17,270.3L17,270.3z"/>
        <path style="fill:#010101;" d="M31.2,285.3c3.1-0.6,6.2-1.8,8.1-4.2c1.2-1.2-0.6-2.4-1.2-1.2c-1.9,1.8-4.3,3-6.8,3.6
            C29.4,283.5,30,285.3,31.2,285.3L31.2,285.3z"/>
        <path style="fill:#010101;" d="M42.4,255.9c-1.2,7.8-1.9,16.2-1.9,24c0,0.6,0.6,1.2,1.2,1.2s1.2-0.6,1.2-1.2
            c0-7.8,0.6-15.6,1.9-23.4C44.9,254.7,42.4,254.1,42.4,255.9L42.4,255.9z"/>
        <path style="fill:#010101;" d="M9.5,287.1c1.9,6.6,4.3,12.6,6.8,19.2c0.6,1.2,2.5,0.6,1.9-0.6c-2.5-6-5-12.6-6.8-19.2
            C11.4,285.9,8.9,285.9,9.5,287.1L9.5,287.1z"/>
        <path style="fill:#010101;" d="M10.8,288.3c3.1,6.6,7.4,12.6,11.8,18c0.6,1.2,2.5,0,1.9-1.2c-4.3-5.4-8.7-12-11.8-18
            C12,285.9,10.1,287.1,10.8,288.3L10.8,288.3z"/>
        <path style="fill:#010101;" d="M12,286.5c3.7,6,6.2,12.6,9.9,18.6s10.5,3.6,16.7,3c1.2,0,1.2-2.4,0-1.8c-3.7,0.6-6.8,0.6-10.5,0.6
            c-3.7-0.6-5-4.2-6.2-6.6c-2.5-4.8-5-9.6-7.4-14.4c0-0.6-1.2-0.6-1.2-0.6C12,285.3,12,285.9,12,286.5L12,286.5L12,286.5z"/>
        <path style="fill:#010101;" d="M32.5,284.1c1.9,4.8,3.7,10.2,5.6,15c0.6,1.8,1.2,4.2,3.1,5.4c2.5,1.8,6.8,0.6,9.9,0.6h18
            c0.6,0,1.2-0.6,1.2-1.2c0-0.6-0.6-1.2-1.2-1.2c-7.4,0-16.1,1.2-22.9,0c-6.8-1.2-8.7-13.8-10.5-19.2
            C33.7,282.3,31.8,282.9,32.5,284.1z"/>
        <path style="fill:#010101;" d="M35.6,284.1c3.1,7.2,4.3,13.8,11.8,17.4s15.5,2.4,23.6,1.2c1.2,0,0.6-2.4-0.6-1.8
            c-7.4,1.2-14.9,2.4-22.3-1.2c-6.8-3-8.1-10.2-11.2-16.2C36.8,281.7,34.9,282.9,35.6,284.1z"/>
        <path style="fill:#010101;" d="M33.7,121.2l-1.9-1.2c-1.2-0.6-2.5,1.2-1.2,1.8l1.9,1.2C33.7,123.6,34.9,121.8,33.7,121.2z"/>
        <path style="fill:#010101;" d="M73.4,128.4L73.4,128.4c-1.2-1.2-1.9-1.2-1.9-0.6c-0.6,0.6-0.6,1.2,0,1.2l0.6,0.6
            c0.6,0.6,1.2,0.6,1.2,0S73.4,128.4,73.4,128.4z"/>
        <path style="fill:#010101;" d="M103.2,124.8l-1.2-0.6c-1.2-0.6-1.9,1.8-0.6,1.8l1.2,0.6C103.8,127.2,104.4,125.4,103.2,124.8z"/>
        <path style="fill:#010101;" d="M112.5,123l-3.1-1.2c-1.2-0.6-1.9,1.8-0.6,1.8l3.1,1.2C113.1,125.4,113.7,123,112.5,123z"/>
        <path style="fill:#010101;" d="M44.2,65.5c-0.6,6.6-3.1,13.2-6.8,18.6c-0.6,1.2,1.2,2.4,1.9,1.2c4.3-6,6.8-12.6,7.4-19.8
            C46.7,64.3,44.2,64.3,44.2,65.5L44.2,65.5z"/>
        <path style="fill:#010101;" d="M82.7,86.5c0,3-0.6,5.4-2.5,7.8c-0.6,1.2,0.6,2.4,1.2,1.2c2.5-2.4,3.7-6,3.1-9.6
            C84.6,85.3,82.7,85.3,82.7,86.5z"/>
        <path style="fill:#010101;" d="M36.2,27.8c-1.2-1.8,0-4.2,1.9-5.4c0.6,0,0.6-0.6,0.6-1.2c0-0.6-1.2-0.6-1.2-0.6
            c-3.1,1.8-3.7,5.4-2.5,8.4C34.9,30.2,36.8,29,36.2,27.8L36.2,27.8z"/>
    </g>
</g>
<rect x="0" y="108.9" style="fill:#F47521;" width="120" height="11.1"/>
</svg>
