<?xml version="1.0" encoding="utf-8"?>
<!-- Generator: Adobe Illustrator 22.0.1, SVG Export Plug-In . SVG Version: 6.00 Build 0)  -->
<svg version="1.1" id="Layer_1" xmlns="http://www.w3.org/2000/svg" xmlns:xlink="http://www.w3.org/1999/xlink" x="0px" y="0px"
	 width="100px" height="120px" viewBox="0 0 100 120" style="enable-background:new 0 0 100 120;" xml:space="preserve">
<style type="text/css">
	.st0{opacity:0.59;fill:#CEDD38;}
	.st1{fill:#212121;}
	.st2{font-family:'Helvetica';}
	.st3{font-size:13px;}
	.st4{fill:none;stroke:#212121;stroke-miterlimit:10;}
	.st5{fill:#98AB3B;}
	.st6{fill:#CEDD38;stroke:#98AB3B;stroke-linejoin:round;stroke-miterlimit:10;}
	.st7{fill:none;stroke:#010101;stroke-width:2;stroke-linecap:round;stroke-miterlimit:10;}
	.st8{fill:#010101;}
	.st9{fill:none;stroke:#010101;stroke-width:2;stroke-linejoin:round;stroke-miterlimit:10;}
</style>
<rect class="st0" width="100" height="20"/>
<text transform="matrix(1 0 0 1 22.1842 15.1968)" class="st1 st2 st3">Explorer I</text>
<path class="st4" d="M100,20"/>
<path class="st4" d="M0,20"/>
<rect class="st5" width="8" height="20"/>
<rect x="92" class="st5" width="8" height="20"/>
<path class="st6" d="M52.2,35C38.2,58.3,24.1,81.7,10,105c26.7,0,53.3,0,80,0C77.4,81.7,64.8,58.3,52.2,35z"/>
<g>
	<path class="st7" d="M51.3,74.9l0.2,6.4"/>
	<path class="st7" d="M55.9,77.4c-2.1,0.1-4.1,0.1-6.2,0.2c-1.6,0.1-3-1-3.3-2.5c-0.3-1.7,0.6-3,1.7-3.5c0.8-0.3,1.8-0.4,3.1,0.2
		c3,1.4,6.6,2.9,10.5,1.8"/>
	<line class="st7" x1="61.7" y1="67.3" x2="62.7" y2="92.6"/>
</g>
<line class="st7" x1="31.4" y1="95" x2="74.2" y2="95"/>
<circle class="st8" cx="51.5" cy="64" r="5.5"/>
<path class="st9" d="M43.7,81.6l-1-12.2c-5.7,1.2-4.6,5.5-4.7,12.3L43.7,81.6z"/>
<line class="st7" x1="51.7" y1="81.3" x2="56.8" y2="92.8"/>
<line class="st7" x1="51.5" y1="81.3" x2="47.3" y2="92.9"/>
</svg>
