<?xml version="1.0" encoding="utf-8"?>
<!-- Generator: Adobe Illustrator 20.1.0, SVG Export Plug-In . SVG Version: 6.00 Build 0)  -->
<svg version="1.1" xmlns="http://www.w3.org/2000/svg" xmlns:xlink="http://www.w3.org/1999/xlink" x="0px" y="0px" width="100px"
	 height="125px" viewBox="0 0 100 125" style="enable-background:new 0 0 100 125;" xml:space="preserve">
<style type="text/css">
	.st0{fill:#FF9D00;stroke:#000000;stroke-linecap:round;stroke-linejoin:round;stroke-miterlimit:10;}
	.st1{fill:none;stroke:#000000;stroke-linecap:round;stroke-linejoin:round;stroke-miterlimit:10;}
	.st2{display:none;fill:none;stroke:#000000;stroke-linecap:round;stroke-linejoin:round;stroke-miterlimit:10;}
	.st3{stroke:#000000;stroke-miterlimit:10;}
	.st4{fill:none;stroke:#000000;stroke-miterlimit:10;}
	.st5{display:none;}
	.st6{display:inline;}
</style>
<g id="Layer_3">
	<path id="outside" class="st0" d="M73.2,82c0-3.6-1.4-7.2-4.1-10c2.8,0,5-2.2,5-5c8.3,0,15-6.7,15-15v-5c0-5.5-4.5-10-10-10l0,0
		c0-5.5-1.5-9-7-9c0-9.4-5.2-9.4-12.5-9.4H37.6c-5.5,0-11.8,2.2-11.8,7.8c-7.9-0.1-8.3,4.3-8.3,9.5l0,0c-5.7,0.2-8.3,6.6-8.3,10.5
		C9.2,51.9,13.5,57,19,57l19,0c0,5,4.6,9.5,15.5,9.5h3.7C61.5,71.2,65,76,65.1,82H73.2z"/>
</g>
<g id="Brain">
	<path class="st1" d="M30,27.5"/>
	<path class="st2" d="M59.2,41.5c0-2.8-0.9-8,5.8-8l7-0.1v-5c0-2.8-2.2-5-5-5c2.8,0,5,2.2,5,5v5"/>
	<path class="st1" d="M75,57.5c2.8,0,5-2.2,5-5V45v7.5C80,55.3,77.8,57.5,75,57.5z"/>
	<path class="st1" d="M78.9,37c-5.5,0-8.9,5-8.9,10.5H60h10C70,42,73.4,37,78.9,37z"/>
	<path class="st1" d="M57.2,66.5c3.9-1.3,7.8-4.6,7.8-9l0,0c-4.3,0-7.9-0.6-8-3c0.1,2.4,4,3,8,3l0,0C65,61.9,61.1,65.1,57.2,66.5z"
		/>
	<g>
		<path class="st1" d="M40.4,25.7"/>
	</g>
	<g>
		<path class="st1" d="M35.2,30.3c0,3.9,3.1,7,7,7s7-2,7-6.3c0,0,0-3.1,0-4.7c0-3.9,0.3-7.8,6.2-7.8"/>
		<path class="st3" d="M35.2,25.6c0,0,0,4.7-3.1,4.7h6.3C35.2,30.3,35.2,25.6,35.2,25.6"/>
	</g>
	<path class="st1" d="M31.3,37.3"/>
	<g>
		<path class="st1" d="M17.5,35.8v6.9c0,4.2,3.7,5.6,7.5,5.6c0,0,10.2,0,10.2,0h7c4.7,0,7-3.9,7-7c0-3.9-3.1-7-7-7s-7,2.3-7,6.3"/>
		<path class="st1" d="M59.1,36.4c0-2.8-0.9-8,5.8-8"/>
		<path class="st4" d="M35.2,44.4c0,0,0-3.9-3.1-3.9h6.3C35.2,40.5,35.2,44.4,35.2,44.4"/>
	</g>
	<path class="st1" d="M59.1,36.4"/>
	<path class="st2" d="M53,48.3c0-1.2,0-5.7,0-6.3c0-3.9,3.1-7,7-7c2.4,0,1.5,0,3.3,0"/>
	<path class="st2" d="M51.7,37.3c-1,0-8.3,0-9.4,0"/>
	<path class="st2" d="M40.7,34.2c-1,0-8.3,0-9.4,0"/>
	<path class="st1" d="M6,16.9"/>
	<path class="st1" d="M6,7.5"/>
</g>
<g id="Compass" class="st5">
	<path class="st6" d="M46.3,24.5l1.9,5.5c0.1-0.4,0.3-0.8,0.6-1.2l10.4,12.7c-0.2,0.4-0.4,0.8-0.4,1.3c0,1.5,1.2,2.8,2.8,2.8
		c0.3,0,0.6-0.1,0.8-0.1l9.6,11.7l1.1,3.3c0.4-1.4,1.6-2.5,3.1-2.5l-2.9-1.7l-9.5-11.7c0.4-0.5,0.6-1,0.6-1.7c0-1.5-1.2-2.8-2.8-2.8
		c-0.4,0-0.8,0.1-1.2,0.3L50.1,27.7c0.4-0.2,0.8-0.3,1.2-0.3C51.4,27.4,46.3,24.5,46.3,24.5z"/>
	<path class="st4" d="M61.3,17.9c13.6,0,24.5,11,24.5,24.6S74.9,67,61.3,67S36.8,56,36.8,42.5S47.8,17.9,61.3,17.9z"/>
</g>
</svg>
