<?xml version="1.0" encoding="utf-8"?>
<!-- Generator: Adobe Illustrator 22.0.1, SVG Export Plug-In . SVG Version: 6.00 Build 0)  -->
<svg version="1.1" id="Layer_1" xmlns="http://www.w3.org/2000/svg" xmlns:xlink="http://www.w3.org/1999/xlink" x="0px" y="0px"
     width="35px" height="35px" viewBox="0 0 35 35" style="enable-background:new 0 0 35 35;" xml:space="preserve">
<g>
        <path style="fill:#F47521;" d="M8.6,13.2c-0.3,1.2-0.7,2.2-1.4,3.3c0,0.2,0,0.3,0.2,0.3c0.7,0.3,1.4,0.3,2.1-0.2
            c1.2-0.5,2.4-1,3.4-1.5c0.3-0.2,0-0.7-0.3-0.5l-2.1,1c-0.7,0.3-2.1,1.2-2.9,0.7l0.2,0.3c0.5-1,1-2.2,1.4-3.4c0-0.2,0-0.3-0.2-0.3
            C8.8,13,8.6,13,8.6,13.2L8.6,13.2L8.6,13.2z"/>
        <path style="fill:#F47521;" d="M32.4,34.5c-2.2-4.8-4.7-9.3-6.9-14c-0.2-0.2-0.7,0.2-0.5,0.3l0,0c2.2,4.6,4.5,9.1,6.6,13.7"/>
        <path style="fill:#F47521;" d="M11.2,16.8c0.7,3.4-1,6.7-2.4,9.6c-1.2,2.4-2.6,4.8-4,7.2C4.6,34,5.2,34.3,5.3,34
            c1.7-3.1,3.4-6.2,5-9.3c1.2-2.6,2.2-5.2,1.5-8.1C11.7,16.3,11.2,16.5,11.2,16.8L11.2,16.8z"/>
        <path style="fill:#F47521;" d="M17.4,9.9c-0.3,0-0.7,0.3-0.7,0.7c0,0.3,0.3,0.7,0.7,0.7c0.2,0,0.2,0,0.3-0.2
            c0.3-0.2,0-0.7-0.3-0.5l0,0l0,0c0.2,0,0.3-0.2,0.3-0.3C17.7,10.1,17.5,10.1,17.4,9.9L17.4,9.9z"/>
        <path style="fill:#F47521;" d="M15.6,12.7c1,0.3,2.2-0.3,2.6-1.4v-0.2c0-0.3-0.5-0.5-0.5-0.2c-0.2,0.9-0.9,1.4-1.7,1.4h-0.2
            C15.3,12,15.1,12.5,15.6,12.7z"/>
        <path style="fill:#F47521;" d="M9.6,12.7c-1-3.1-1.2-6,2.2-7.7c2.2-1.4,5.2-1.2,7.4,0.2c2.6,1.5,3.3,4.6,4,7.4
            c0.9,3.1,1.5,6.2,1.9,9.3c0,0.3,0.7,0.3,0.5,0c-0.5-4.3-1.5-8.4-2.9-12.5c-1-2.6-2.6-5-5.5-5.7c-2.6-0.5-5.2,0-7.2,1.5
            c-2.6,1.9-1.9,5-1,7.6C9.3,13.2,9.8,13,9.6,12.7L9.6,12.7z"/>
        <path style="fill:#F47521;" d="M9.1,13c1.5-0.2,3.1,0.3,4.3,1.4c0.3,0.3,0.7-0.2,0.3-0.3c-1.2-1.2-3.1-1.7-4.8-1.5
            C8.6,12.5,8.8,13.2,9.1,13L9.1,13z"/>
        <path style="fill:#F47521;" d="M13.4,19.4c-0.2,1.9-0.9,3.8-1.9,5.3C11.3,25,11.9,25.4,12,25c1.2-1.7,1.9-3.6,2.1-5.7
            C14.1,19,13.4,19,13.4,19.4L13.4,19.4z"/>
        <path style="fill:#F47521;" d="M24.1,25.4c0,0.9-0.2,1.5-0.7,2.2c-0.2,0.3,0.2,0.7,0.3,0.3c0.7-0.7,1-1.7,0.9-2.7
            C24.6,25,24.1,25,24.1,25.4z"/>
        <path style="fill:#F47521;" d="M11.2,8.6c-0.3-0.5,0-1.2,0.5-1.5c0.2,0,0.2-0.2,0.2-0.3s-0.3-0.2-0.3-0.2c-0.9,0.5-1,1.5-0.7,2.4
            C10.8,9.2,11.3,8.9,11.2,8.6L11.2,8.6z"/>
        <path style="fill:#010101;" d="M8.6,13.2c-0.3,1.2-0.7,2.2-1.4,3.3c0,0.2,0,0.3,0.2,0.3c0.7,0.3,1.4,0.3,2.1-0.2
            c1.2-0.5,2.4-1,3.4-1.5c0.3-0.2,0-0.7-0.3-0.5l-2.1,1c-0.7,0.3-2.1,1.2-2.9,0.7l0.2,0.3c0.5-1,1-2.2,1.4-3.4c0-0.2,0-0.3-0.2-0.3
            C8.8,13,8.6,13,8.6,13.2L8.6,13.2L8.6,13.2z"/>
        <path style="fill:#010101;" d="M32.4,34.5c-2.2-4.8-4.7-9.3-6.9-14c-0.2-0.2-0.7,0.2-0.5,0.3l0,0c2.2,4.6,4.5,9.1,6.6,13.7"/>
        <path style="fill:#010101;" d="M11.2,16.8c0.7,3.4-1,6.7-2.4,9.6c-1.2,2.4-2.6,4.8-4,7.2C4.6,34,5.2,34.3,5.3,34
            c1.7-3.1,3.4-6.2,5-9.3c1.2-2.6,2.2-5.2,1.5-8.1C11.7,16.3,11.2,16.5,11.2,16.8L11.2,16.8z"/>
        <path style="fill:#010101;" d="M17.4,9.9c-0.3,0-0.7,0.3-0.7,0.7c0,0.3,0.3,0.7,0.7,0.7c0.2,0,0.2,0,0.3-0.2
            c0.3-0.2,0-0.7-0.3-0.5l0,0l0,0c0.2,0,0.3-0.2,0.3-0.3C17.7,10.1,17.5,10.1,17.4,9.9L17.4,9.9z"/>
        <path style="fill:#010101;" d="M15.6,12.7c1,0.3,2.2-0.3,2.6-1.4v-0.2c0-0.3-0.5-0.5-0.5-0.2c-0.2,0.9-0.9,1.4-1.7,1.4h-0.2
            C15.3,12,15.1,12.5,15.6,12.7z"/>
        <path style="fill:#010101;" d="M9.6,12.7c-1-3.1-1.2-6,2.2-7.7c2.2-1.4,5.2-1.2,7.4,0.2c2.6,1.5,3.3,4.6,4,7.4
            c0.9,3.1,1.5,6.2,1.9,9.3c0,0.3,0.7,0.3,0.5,0c-0.5-4.3-1.5-8.4-2.9-12.5c-1-2.6-2.6-5-5.5-5.7c-2.6-0.5-5.2,0-7.2,1.5
            c-2.6,1.9-1.9,5-1,7.6C9.3,13.2,9.8,13,9.6,12.7L9.6,12.7z"/>
        <path style="fill:#010101;" d="M9.1,13c1.5-0.2,3.1,0.3,4.3,1.4c0.3,0.3,0.7-0.2,0.3-0.3c-1.2-1.2-3.1-1.7-4.8-1.5
            C8.6,12.5,8.8,13.2,9.1,13L9.1,13z"/>
        <path style="fill:#010101;" d="M13.4,19.4c-0.2,1.9-0.9,3.8-1.9,5.3C11.3,25,11.9,25.4,12,25c1.2-1.7,1.9-3.6,2.1-5.7
            C14.1,19,13.4,19,13.4,19.4L13.4,19.4z"/>
        <path style="fill:#010101;" d="M24.1,25.4c0,0.9-0.2,1.5-0.7,2.2c-0.2,0.3,0.2,0.7,0.3,0.3c0.7-0.7,1-1.7,0.9-2.7
            C24.6,25,24.1,25,24.1,25.4z"/>
        <path style="fill:#010101;" d="M11.2,8.6c-0.3-0.5,0-1.2,0.5-1.5c0.2,0,0.2-0.2,0.2-0.3s-0.3-0.2-0.3-0.2c-0.9,0.5-1,1.5-0.7,2.4
            C10.8,9.2,11.3,8.9,11.2,8.6L11.2,8.6z"/>
</g>
<rect y="33" style="fill:#F47521;" width="35" height="2"/>
</svg>
