<!-- Generator: Adobe Illustrator 22.0.1, SVG Export Plug-In  -->
<svg version="1.1"
     xmlns="http://www.w3.org/2000/svg" xmlns:xlink="http://www.w3.org/1999/xlink" xmlns:a="http://ns.adobe.com/AdobeSVGViewerExtensions/3.0/"
     x="0px" y="0px" width="42.4px" height="50px" viewBox="0 0 42.4 50" style="enable-background:new 0 0 42.4 50;"
     xml:space="preserve">
<defs>
</defs>
<g>
    <path d="M27.1,5.7c-0.2,0.7-0.4,1.3-0.8,1.9c0,0.1,0,0.2,0.1,0.2c0.4,0.2,0.8,0.2,1.2-0.1c0.7-0.3,1.4-0.6,2-0.9
        c0.2-0.1,0-0.4-0.2-0.3l-1.2,0.6c-0.4,0.2-1.2,0.7-1.7,0.4l0.1,0.2c0.3-0.6,0.6-1.3,0.8-2c0-0.1,0-0.2-0.1-0.2
        C27.2,5.6,27.1,5.6,27.1,5.7L27.1,5.7L27.1,5.7z"/>
    <path d="M36.6,10.1c1.4,2.9,2.9,5.8,4.2,8.7c0.8,1.7,1.5,3.3,1.1,5.2c-0.3,1.7-1.1,3.3-1.8,4.9c-2.3,5.2-5.5,10.8-11.4,12.3
        c-0.1,0-0.1,0.1-0.1,0.2c0,0.1,0.1,0.1,0.2,0.1l0,0c6.2-1.6,9.4-7.5,11.7-12.9c1.2-2.8,2.5-5.5,1.3-8.5c-1.4-3.5-3.3-6.8-4.9-10.2
        C36.8,9.8,36.5,10,36.6,10.1L36.6,10.1z"/>
    <path d="M27.6,21.3c0.6,1,1.2,2.1,1.6,3.2c0.1,0.2,0.4,0.1,0.3-0.1c-0.4-1.1-0.9-2.2-1.6-3.3C27.8,20.9,27.5,21.1,27.6,21.3
        L27.6,21.3z"/>
    <path d="M29.1,21.1c0.9,0.4,1.6,1.2,1.8,2.2c0,0.2,0.4,0.1,0.3-0.1c-0.2-1.1-0.9-2-2-2.4C29,20.7,28.8,21,29.1,21.1L29.1,21.1z"/>
    <path d="M31.1,21.3c0.5,0.6,0.9,1.2,1.3,1.9c0.1,0.2,0.4,0,0.3-0.2c-0.3-0.7-0.8-1.4-1.3-1.9C31.2,20.9,31,21.1,31.1,21.3
        L31.1,21.3z"/>
    <path d="M39.6,20.5c0.5,0.7,0.8,1.4,1,2.2c0.1,0.2,0.4,0.1,0.3-0.1c-0.2-0.8-0.6-1.6-1.1-2.3C39.8,20.1,39.5,20.3,39.6,20.5
        L39.6,20.5z"/>
    <path d="M28.7,28l-0.5,1.1c-0.1,0.2,0.2,0.4,0.3,0.2l0.5-1.1C29.1,28,28.8,27.8,28.7,28z"/>
    <path d="M26.8,29.9l-1.2,1.9c-0.1,0.2,0.2,0.4,0.3,0.2l1.2-1.9C27.3,29.9,27,29.7,26.8,29.9z"/>
    <path d="M28.6,7.8c0.4,2-0.6,3.9-1.4,5.6c-0.7,1.4-1.5,2.8-2.3,4.2c-0.1,0.2,0.2,0.4,0.3,0.2c1-1.8,2-3.6,2.9-5.4
        c0.7-1.5,1.3-3,0.9-4.7C28.9,7.5,28.6,7.6,28.6,7.8L28.6,7.8z"/>
    <path d="M24.4,17.7c-2.3,1.1-4,3.1-5.5,5.1c-1.8,2.4-3.7,4.7-5.8,6.8c-0.9,0.9-1.8,1.9-2.6,3c-0.8,1.2-1.2,2.6-2,3.8
        c-1.4,2.4-5.1,2.8-5.7,5.7c0,0.2,0.3,0.3,0.3,0.1c0.6-2.9,4.2-3.3,5.6-5.6c0.7-1.2,1.1-2.5,1.9-3.7c0.9-1.2,1.8-2.3,2.9-3.4
        c1.8-1.8,3.4-3.7,4.9-5.7c1.7-2.3,3.5-4.6,6.1-5.9C24.8,17.9,24.6,17.6,24.4,17.7L24.4,17.7z"/>
    <path d="M10.4,37.7C7.2,40.9,2.5,41.8,0,45.8c0,0.1,0,0.2,0.1,0.2c0,0,0.1,0,0.1,0c1.1,0,2.3,0.3,3.4,0.2c1-0.2,2-0.5,3-0.9
        c2.2-0.8,4.4-1.7,6.5-2.7c0.2-0.1,0-0.4-0.2-0.3c-2.1,1-4.2,1.9-6.4,2.7c-1,0.5-2.2,0.8-3.3,0.9c-1,0-2-0.2-3-0.2L0.3,46
        c2.5-3.9,7.1-4.9,10.3-8C10.8,37.8,10.5,37.6,10.4,37.7L10.4,37.7z"/>
    <path d="M4.1,43c-0.3-0.4-0.8,0-1,0.3c-0.5,0.7-1.1,1.3-1.6,2c-0.1,0.2,0.2,0.4,0.3,0.2c0.3-0.4,0.6-0.8,1-1.3c0.1-0.1,0.9-1.2,1-1
        S4.3,43.2,4.1,43L4.1,43z"/>
    <path d="M4.4,44.7c0.1,0,0.2-0.1,0.2-0.2c0-0.1-0.1-0.2-0.2-0.2c-0.1,0-0.2,0.1-0.2,0.2C4.2,44.7,4.3,44.7,4.4,44.7z"/>
    <path d="M11.2,42.3c-0.8-0.2-1.4,0.2-2.1,0.6c-1,0.6-2,1.3-3,2c-0.2,0.1,0,0.4,0.2,0.3l2.1-1.3c0.8-0.5,1.8-1.4,2.7-1.2
        c0.1,0,0.2,0,0.2-0.1C11.3,42.4,11.3,42.3,11.2,42.3L11.2,42.3z"/>
    <path d="M28.2,30.1c-2,5.1-7.1,8.3-12.6,7.8c-0.2,0-0.2,0.3,0,0.3c5.6,0.5,10.9-2.8,12.9-8C28.6,30,28.2,29.9,28.2,30.1L28.2,30.1z
        "/>
    <path d="M15.6,37.8c-1.2,1-2.5,1.8-3.8,2.5c-0.2,0.1,0,0.4,0.2,0.3c1.4-0.7,2.7-1.6,3.9-2.6C16.1,37.9,15.8,37.6,15.6,37.8z"/>
    <path d="M11.8,38.2c-1.3,1.1-2.7,1.9-4.3,2.5c-0.2,0.1-0.1,0.4,0.1,0.3c1.6-0.6,3.1-1.5,4.4-2.6C12.3,38.3,12,38.1,11.8,38.2
        L11.8,38.2z"/>
    <path d="M14.4,36.5c-0.2,0.2-0.4,0.3-0.7,0.3c-0.2,0-0.1,0.4,0.1,0.3c0.3,0,0.6-0.2,0.8-0.4C14.8,36.6,14.5,36.4,14.4,36.5z"/>
    <path d="M13.4,36c-0.3,0.2-0.7,0.3-1.1,0.2c-0.2,0-0.2,0.3,0,0.3c0.5,0,0.9-0.1,1.3-0.3C13.8,36.2,13.6,35.9,13.4,36L13.4,36z"/>
    <path d="M12.6,34.6L11.8,35c-0.2,0.1,0,0.4,0.2,0.3l0.8-0.4C13,34.8,12.8,34.5,12.6,34.6L12.6,34.6z"/>
    <path d="M11.8,33.4L11,34c-0.2,0.1,0,0.4,0.2,0.3l0.9-0.6C12.2,33.6,12,33.3,11.8,33.4z"/>
    <path d="M12.2,31.5l-2,1.9c-0.2,0.2,0.1,0.4,0.2,0.2l2-1.9C12.6,31.6,12.3,31.3,12.2,31.5L12.2,31.5z"/>
    <path d="M14.3,29.2c-0.6,0.5-1,1-1.4,1.6C12.7,31,13,31.2,13.1,31c0.4-0.6,0.8-1.1,1.4-1.6C14.7,29.3,14.4,29.1,14.3,29.2
        L14.3,29.2z"/>
    <path d="M14.5,30.6l-0.7,0.7c-0.1,0.1-0.1,0.2,0,0.2c0.1,0.1,0.2,0.1,0.2,0l0,0l0.7-0.7c0.1-0.1,0.1-0.2,0-0.2
        C14.7,30.5,14.6,30.5,14.5,30.6z"/>
    <path d="M15,31.5c-0.1,0.4-0.3,0.7-0.7,0.9c-0.2,0.1,0,0.4,0.2,0.3c0.4-0.2,0.7-0.6,0.8-1.1C15.3,31.4,15,31.3,15,31.5L15,31.5z"/>
    <path d="M16,32l-0.7,0.9c-0.1,0.2,0.1,0.4,0.2,0.2l0.7-0.9C16.4,32,16.1,31.8,16,32L16,32z"/>
    <path d="M16.4,32.9l-0.7,0.8c-0.2,0.2,0.1,0.4,0.2,0.2l0.7-0.8C16.8,33,16.5,32.8,16.4,32.9z"/>
    <path d="M17.1,33.5c-0.1,0.3-0.3,0.5-0.6,0.7c-0.2,0.1,0,0.4,0.2,0.3c0.3-0.2,0.5-0.5,0.7-0.8C17.5,33.5,17.2,33.3,17.1,33.5
        L17.1,33.5z"/>
    <path d="M18.5,33.5c-0.4,0.1-0.8,0.4-1.1,0.7c-0.1,0.2,0.1,0.4,0.2,0.2c0.2-0.3,0.6-0.5,0.9-0.6C18.8,33.8,18.8,33.4,18.5,33.5z"/>
    <path d="M19.8,33.9L19.4,34c-0.2,0.1-0.1,0.4,0.1,0.3l0.4-0.1C20.1,34.1,20,33.8,19.8,33.9z"/>
    <path d="M20.5,33.7L20,34c-0.1,0.1-0.1,0.2-0.1,0.2c0,0.1,0.2,0.1,0.2,0.1c0,0,0,0,0,0l0.5-0.4c0.1-0.1,0.1-0.2,0.1-0.2
        C20.7,33.6,20.6,33.6,20.5,33.7C20.5,33.7,20.5,33.7,20.5,33.7z"/>
    <path d="M15.8,40.2c-0.7,0.1-1.3,0.3-1.9,0.6c-0.2,0.1-0.1,0.4,0.1,0.3c0.6-0.2,1.3-0.4,2-0.6C16.1,40.4,16.1,40.1,15.8,40.2
        L15.8,40.2z"/>
    <path d="M17,40.4c-0.7,0.2-1.4,0.5-2,0.9c-0.2,0.1,0,0.4,0.2,0.3c0.6-0.4,1.2-0.7,1.9-0.9c0.1,0,0.1-0.1,0.1-0.2
        C17.2,40.4,17.1,40.4,17,40.4L17,40.4z"/>
    <path d="M28.6,40.4c-0.5,1.4-1.7,2.5-3.2,3c-0.1,0-0.1,0.1-0.1,0.2c0,0.1,0.1,0.1,0.2,0.1l0,0c1.6-0.5,2.8-1.7,3.4-3.2
        C29,40.3,28.7,40.2,28.6,40.4z"/>
    <path d="M27.2,38.3c-0.1,0.6-0.4,1.1-0.8,1.5c-0.2,0.2,0.1,0.4,0.2,0.2c0.5-0.5,0.8-1,0.9-1.7C27.6,38.2,27.2,38.1,27.2,38.3
        L27.2,38.3z"/>
    <path d="M37.2,31.2l-1.1,1.6C36,33,36.3,33.2,36.4,33l1.1-1.6C37.6,31.2,37.3,31.1,37.2,31.2z"/>
    <path d="M28.4,39.3c3.6-1.3,7.3-2.8,9.4-6.2c0-0.1,0-0.2-0.1-0.2c-0.1,0-0.2,0-0.2,0.1c-2,3.4-5.7,4.8-9.2,6
        C28.1,39.1,28.2,39.4,28.4,39.3L28.4,39.3z"/>
    <path d="M32.2,3.8c-0.2,0-0.4,0.2-0.4,0.4c0,0.2,0.2,0.4,0.4,0.4c0.1,0,0.1,0,0.2-0.1c0.2-0.1,0-0.4-0.2-0.3l0,0l0,0
        c0.1,0,0.2-0.1,0.2-0.2C32.4,3.9,32.3,3.9,32.2,3.8L32.2,3.8z"/>
    <path d="M26.8,17c0.1,0.3,0.1,0.7-0.2,0.9c-0.1,0.2,0.1,0.4,0.2,0.2c0.3-0.4,0.4-0.8,0.3-1.3C27,16.7,26.7,16.8,26.8,17L26.8,17z"
        />
    <path d="M28.3,17c0,0.5-0.1,1-0.2,1.4c-0.1,0.2,0.3,0.3,0.3,0.1c0.2-0.5,0.3-1,0.2-1.5C28.7,16.8,28.3,16.8,28.3,17L28.3,17z"/>
    <path d="M38.1,18.1l0.5,0.6c0.1,0.1,0.2,0.1,0.2,0l0,0c0.1-0.1,0.1-0.2,0-0.2l-0.5-0.6c-0.1-0.1-0.2-0.1-0.2,0c0,0,0,0,0,0
        C38.1,17.9,38.1,18,38.1,18.1z"/>
    <path d="M39.1,17.4l1,1.6c0,0.1,0.2,0.1,0.2,0.1c0.1,0,0.1-0.2,0.1-0.2l-1-1.6c0-0.1-0.2-0.1-0.2-0.1C39.1,17.3,39,17.4,39.1,17.4z
        "/>
    <path d="M40.2,17.8l0.6,1.2c0.1,0.2,0.4,0,0.3-0.2l-0.6-1.2C40.4,17.4,40.1,17.6,40.2,17.8L40.2,17.8z"/>
    <path d="M31.2,5.4c0.6,0.2,1.3-0.2,1.5-0.8c0,0,0-0.1,0-0.1c0-0.2-0.3-0.3-0.3-0.1c-0.1,0.5-0.5,0.8-1,0.8c0,0-0.1,0-0.1,0
        C31,5,30.9,5.3,31.2,5.4z"/>
    <path d="M27.7,5.4c-0.6-1.8-0.7-3.5,1.3-4.5c1.3-0.8,3-0.7,4.3,0.1c1.5,0.9,1.9,2.7,2.3,4.3c0.5,1.8,0.9,3.6,1.1,5.4
        c0,0.2,0.4,0.2,0.3,0c-0.3-2.5-0.9-4.9-1.7-7.3c-0.6-1.5-1.5-2.9-3.2-3.3c-1.5-0.3-3,0-4.2,0.9c-1.5,1.1-1.1,2.9-0.6,4.4
        C27.5,5.7,27.8,5.6,27.7,5.4L27.7,5.4z"/>
    <path d="M27.4,5.6c0.9-0.1,1.8,0.2,2.5,0.8c0.2,0.2,0.4-0.1,0.2-0.2c-0.7-0.7-1.8-1-2.8-0.9C27.1,5.3,27.2,5.7,27.4,5.6L27.4,5.6z"
        />
    <path d="M12.8,41.1c0.8,0.1,1.5,0.7,2.3,0.9c0.6,0.2,1.3,0.3,1.9,0.3c1.6-0.1,3.2-0.4,4.7-1c0.2-0.1,0.1-0.4-0.1-0.3
        c-1.5,0.6-3.1,0.9-4.7,1c-0.9,0-1.8-0.2-2.6-0.6c-0.5-0.3-1-0.5-1.6-0.6C12.6,40.7,12.5,41.1,12.8,41.1L12.8,41.1z"/>
    <path d="M22.1,41.3c0.4,1.3,0.6,2.9,1.2,4.2c0.2,0.7,1,1.1,1.7,0.9c0.2-0.1,0.1-0.4-0.1-0.3c-1.3,0.4-1.6-1.6-1.7-2.3l-0.7-2.5
        c0-0.1-0.1-0.1-0.2-0.1C22.1,41.1,22.1,41.2,22.1,41.3L22.1,41.3z"/>
    <path d="M25.6,43.5c0.2,0.8,0,1.7-0.4,2.4c-0.1,0.2,0.2,0.4,0.3,0.2c0.4-0.8,0.6-1.7,0.4-2.6C25.8,43.2,25.5,43.3,25.6,43.5z"/>
    <path d="M25.5,43.5c0.5,0.9,1.2,1.7,2,2.3c0.2,0.1,0.4-0.2,0.2-0.3c-0.8-0.6-1.5-1.3-1.9-2.2C25.7,43.2,25.4,43.3,25.5,43.5
        L25.5,43.5z"/>
    <path d="M27.8,46c0.5-0.1,1-0.3,1.3-0.7c0.2-0.2-0.1-0.4-0.2-0.2c-0.3,0.3-0.7,0.5-1.1,0.6C27.5,45.7,27.6,46,27.8,46L27.8,46z"/>
    <path d="M29.6,41.1c-0.2,1.3-0.3,2.7-0.3,4c0,0.1,0.1,0.2,0.2,0.2c0.1,0,0.2-0.1,0.2-0.2c0-1.3,0.1-2.6,0.3-3.9
        C30,40.9,29.6,40.8,29.6,41.1L29.6,41.1z"/>
    <path d="M24.3,46.3c0.3,1.1,0.7,2.1,1.1,3.2c0.1,0.2,0.4,0.1,0.3-0.1c-0.4-1-0.8-2.1-1.1-3.2C24.6,46.1,24.2,46.1,24.3,46.3
        L24.3,46.3z"/>
    <path d="M24.5,46.5c0.5,1.1,1.2,2.1,1.9,3c0.1,0.2,0.4,0,0.3-0.2c-0.7-0.9-1.4-2-1.9-3C24.7,46.1,24.4,46.3,24.5,46.5L24.5,46.5z"
        />
    <path d="M24.7,46.2c0.6,1,1,2.1,1.6,3.1s1.7,0.6,2.7,0.5c0.2,0,0.2-0.4,0-0.3c-0.6,0.1-1.1,0.1-1.7,0.1c-0.6-0.1-0.8-0.7-1-1.1
        c-0.4-0.8-0.8-1.6-1.2-2.4c0-0.1-0.2-0.1-0.2-0.1C24.7,46,24.7,46.1,24.7,46.2L24.7,46.2L24.7,46.2z"/>
    <path d="M28,45.8c0.3,0.8,0.6,1.7,0.9,2.5c0.1,0.3,0.2,0.7,0.5,0.9c0.4,0.3,1.1,0.1,1.6,0.1h2.9c0.1,0,0.2-0.1,0.2-0.2
        c0-0.1-0.1-0.2-0.2-0.2c-1.2,0-2.6,0.2-3.7,0s-1.4-2.3-1.7-3.2C28.2,45.5,27.9,45.6,28,45.8z"/>
    <path d="M28.5,45.8c0.5,1.2,0.7,2.3,1.9,2.9s2.5,0.4,3.8,0.2c0.2,0,0.1-0.4-0.1-0.3c-1.2,0.2-2.4,0.4-3.6-0.2
        c-1.1-0.5-1.3-1.7-1.8-2.7C28.7,45.4,28.4,45.6,28.5,45.8z"/>
    <path d="M28.2,18.6l-0.3-0.2c-0.2-0.1-0.4,0.2-0.2,0.3l0.3,0.2C28.2,19,28.4,18.7,28.2,18.6z"/>
    <path d="M34.6,19.8L34.6,19.8c-0.2-0.2-0.3-0.2-0.3-0.1c-0.1,0.1-0.1,0.2,0,0.2l0.1,0.1c0.1,0.1,0.2,0.1,0.2,0
        C34.6,19.9,34.6,19.8,34.6,19.8z"/>
    <path d="M39.4,19.2l-0.2-0.1c-0.2-0.1-0.3,0.3-0.1,0.3l0.2,0.1C39.5,19.6,39.6,19.3,39.4,19.2z"/>
    <path d="M40.9,18.9l-0.5-0.2c-0.2-0.1-0.3,0.3-0.1,0.3l0.5,0.2C41,19.3,41.1,18.9,40.9,18.9z"/>
    <path d="M29.9,9.3c-0.1,1.1-0.5,2.2-1.1,3.1c-0.1,0.2,0.2,0.4,0.3,0.2c0.7-1,1.1-2.1,1.2-3.3C30.3,9.1,29.9,9.1,29.9,9.3L29.9,9.3z
        "/>
    <path d="M36.1,12.8c0,0.5-0.1,0.9-0.4,1.3c-0.1,0.2,0.1,0.4,0.2,0.2c0.4-0.4,0.6-1,0.5-1.6C36.4,12.6,36.1,12.6,36.1,12.8z"/>
    <path d="M28.6,3c-0.2-0.3,0-0.7,0.3-0.9C29,2.1,29,2,29,1.9c0-0.1-0.2-0.1-0.2-0.1c-0.5,0.3-0.6,0.9-0.4,1.4
        C28.4,3.4,28.7,3.2,28.6,3L28.6,3z"/>
</g>
</svg>
