<svg version="1.1" id="Layer_1" xmlns="http://www.w3.org/2000/svg" xmlns:xlink="http://www.w3.org/1999/xlink" x="0px" y="0px"
     viewBox="0 0 22 6" style="enable-background:new 0 0 22 6;" xml:space="preserve">
<style type="text/css">
    .st0{fill:none;stroke:#000000;stroke-width:0.25;stroke-miterlimit:10;}
    .st2{font-size:6px;}
    .st3{font-family:'Helvetica';}
</style>
<path class="st0" d="M3.5,5.5L3.5,5.5c0.3-0.3,0.6-0.6,0.9-0.9c0.5-0.5,0.9-0.9,1.3-1.4C6.1,2.6,6.3,2,6.1,1.5C5.9,1,5.5,0.6,5,0.5
    C4.3,0.4,3.8,0.8,3.5,1.1l0,0C3.2,0.8,2.7,0.4,2.1,0.5C1.5,0.6,1.1,1,0.9,1.5C0.7,2,0.9,2.6,1.3,3.2c0.4,0.5,0.9,1,1.3,1.4
    C2.9,4.9,3.2,5.2,3.5,5.5L3.5,5.5L3.5,5.5z"/>
<text transform="matrix(1 0 0 1 6.5613 4.809)"><tspan x="1.3" y="0" class="st3 st2">Save</tspan></text>
</svg>